<?xml version="1.0" encoding="UTF-8" standalone="no"?><svg xmlns="http://www.w3.org/2000/svg" xmlns:xlink="http://www.w3.org/1999/xlink" contentScriptType="application/ecmascript" contentStyleType="text/css" height="1422px" preserveAspectRatio="none" style="width:2164px;height:1422px;" version="1.1" viewBox="0 0 2164 1422" width="2164px" zoomAndPan="magnify"><defs/><g><rect fill="#FFFFFF" height="1106.1953" style="stroke: #4A7C3F; stroke-width: 1.0;" width="10" x="228" y="128.5625"/><rect fill="#FFFFFF" height="948.5313" style="stroke: #4A7C3F; stroke-width: 1.0;" width="10" x="454" y="199.8281"/><rect fill="#FFFFFF" height="868" style="stroke: #4A7C3F; stroke-width: 1.0;" width="10" x="681" y="259.2266"/><rect fill="#FFFFFF" height="249.5391" style="stroke: #4A7C3F; stroke-width: 1.0;" width="10" x="860" y="288.3594"/><rect fill="#FFFFFF" height="531.1953" style="stroke: #4A7C3F; stroke-width: 1.0;" width="10" x="1109" y="567.0313"/><rect fill="#FFFFFF" height="472.9297" style="stroke: #4A7C3F; stroke-width: 1.0;" width="10" x="1337" y="596.1641"/><rect fill="#FFFFFF" height="233.1953" style="stroke: #4A7C3F; stroke-width: 1.0;" width="10" x="1630" y="806.7656"/><rect fill="#FFFFFF" height="86.3984" style="stroke: #4A7C3F; stroke-width: 1.0;" width="10" x="1905" y="851.0313"/><rect fill="#FFFFFF" height="29.1328" style="stroke: #4A7C3F; stroke-width: 1.0;" width="10" x="1905" y="981.6953"/><rect fill="#FFFFFF" height="774.7344" style="stroke: #000000; stroke-width: 2.0;" width="1770" x="382" y="345.4922"/><rect fill="#FFFFFF" height="728.4688" style="stroke: none; stroke-width: 1.0;" width="1770" x="382" y="391.7578"/><rect fill="#FFFFFF" height="657.5313" style="stroke: #000000; stroke-width: 2.0;" width="1750" x="392" y="455.6953"/><rect fill="#FFFFFF" height="611.2656" style="stroke: none; stroke-width: 1.0;" width="1750" x="392" y="501.9609"/><rect fill="#FFFFFF" height="410.7969" style="stroke: #000000; stroke-width: 2.0;" width="1730" x="402" y="695.4297"/><rect fill="#FFFFFF" height="335.3984" style="stroke: none; stroke-width: 1.0;" width="1730" x="402" y="770.8281"/><line style="stroke: #4A7C3F; stroke-width: 1.0; stroke-dasharray: 5.0,5.0;" x1="45" x2="45" y1="82.2969" y2="1333.2891"/><line style="stroke: #4A7C3F; stroke-width: 1.0; stroke-dasharray: 5.0,5.0;" x1="233" x2="233" y1="82.2969" y2="1333.2891"/><line style="stroke: #4A7C3F; stroke-width: 1.0; stroke-dasharray: 5.0,5.0;" x1="459" x2="459" y1="82.2969" y2="1333.2891"/><line style="stroke: #4A7C3F; stroke-width: 1.0; stroke-dasharray: 5.0,5.0;" x1="686" x2="686" y1="82.2969" y2="1333.2891"/><line style="stroke: #4A7C3F; stroke-width: 1.0; stroke-dasharray: 5.0,5.0;" x1="864.5" x2="864.5" y1="82.2969" y2="1333.2891"/><line style="stroke: #4A7C3F; stroke-width: 1.0; stroke-dasharray: 5.0,5.0;" x1="1114" x2="1114" y1="82.2969" y2="1333.2891"/><line style="stroke: #4A7C3F; stroke-width: 1.0; stroke-dasharray: 5.0,5.0;" x1="1342" x2="1342" y1="82.2969" y2="1333.2891"/><line style="stroke: #4A7C3F; stroke-width: 1.0; stroke-dasharray: 5.0,5.0;" x1="1634.5" x2="1634.5" y1="82.2969" y2="1333.2891"/><line style="stroke: #4A7C3F; stroke-width: 1.0; stroke-dasharray: 5.0,5.0;" x1="1909.5" x2="1909.5" y1="82.2969" y2="1333.2891"/><text fill="#000000" font-family="sans-serif" font-size="14" lengthAdjust="spacingAndGlyphs" textLength="68" x="8" y="78.9951">Productor</text><ellipse cx="45" cy="13" fill="#FEFECE" rx="8" ry="8" style="stroke: #4A7C3F; stroke-width: 2.0;"/><path d="M45,21 L45,48 M32,29 L58,29 M45,48 L32,63 M45,48 L58,63 " fill="none" style="stroke: #4A7C3F; stroke-width: 2.0;"/><text fill="#000000" font-family="sans-serif" font-size="14" lengthAdjust="spacingAndGlyphs" textLength="68" x="8" y="1345.2842">Productor</text><ellipse cx="45" cy="1358.5859" fill="#FEFECE" rx="8" ry="8" style="stroke: #4A7C3F; stroke-width: 2.0;"/><path d="M45,1366.5859 L45,1393.5859 M32,1374.5859 L58,1374.5859 M45,1393.5859 L32,1408.5859 M45,1393.5859 L58,1408.5859 " fill="none" style="stroke: #4A7C3F; stroke-width: 2.0;"/><rect fill="#EAF4E3" height="46.5938" style="stroke: #4A7C3F; stroke-width: 1.5;" width="128" x="169" y="34.7031"/><text fill="#000000" font-family="sans-serif" font-size="14" lengthAdjust="spacingAndGlyphs" textLength="114" x="176" y="54.6982">LoteFormScreen</text><text fill="#000000" font-family="sans-serif" font-size="14" lengthAdjust="spacingAndGlyphs" textLength="54" x="206" y="70.9951">(Flutter)</text><rect fill="#EAF4E3" height="46.5938" style="stroke: #4A7C3F; stroke-width: 1.5;" width="128" x="169" y="1332.2891"/><text fill="#000000" font-family="sans-serif" font-size="14" lengthAdjust="spacingAndGlyphs" textLength="114" x="176" y="1352.2842">LoteFormScreen</text><text fill="#000000" font-family="sans-serif" font-size="14" lengthAdjust="spacingAndGlyphs" textLength="54" x="206" y="1368.5811">(Flutter)</text><rect fill="#EAF4E3" height="46.5938" style="stroke: #4A7C3F; stroke-width: 1.5;" width="94" x="412" y="34.7031"/><text fill="#000000" font-family="sans-serif" font-size="14" lengthAdjust="spacingAndGlyphs" textLength="80" x="419" y="54.6982">LoteService</text><text fill="#000000" font-family="sans-serif" font-size="14" lengthAdjust="spacingAndGlyphs" textLength="54" x="432" y="70.9951">(Flutter)</text><rect fill="#EAF4E3" height="46.5938" style="stroke: #4A7C3F; stroke-width: 1.5;" width="94" x="412" y="1332.2891"/><text fill="#000000" font-family="sans-serif" font-size="14" lengthAdjust="spacingAndGlyphs" textLength="80" x="419" y="1352.2842">LoteService</text><text fill="#000000" font-family="sans-serif" font-size="14" lengthAdjust="spacingAndGlyphs" textLength="54" x="432" y="1368.5811">(Flutter)</text><rect fill="#EAF4E3" height="46.5938" style="stroke: #4A7C3F; stroke-width: 1.5;" width="104" x="634" y="34.7031"/><text fill="#000000" font-family="sans-serif" font-size="14" lengthAdjust="spacingAndGlyphs" textLength="90" x="641" y="54.6982">lote.routes.js</text><text fill="#000000" font-family="sans-serif" font-size="14" lengthAdjust="spacingAndGlyphs" textLength="65" x="653.5" y="70.9951">(Express)</text><rect fill="#EAF4E3" height="46.5938" style="stroke: #4A7C3F; stroke-width: 1.5;" width="104" x="634" y="1332.2891"/><text fill="#000000" font-family="sans-serif" font-size="14" lengthAdjust="spacingAndGlyphs" textLength="90" x="641" y="1352.2842">lote.routes.js</text><text fill="#000000" font-family="sans-serif" font-size="14" lengthAdjust="spacingAndGlyphs" textLength="65" x="653.5" y="1368.5811">(Express)</text><rect fill="#EAF4E3" height="30.2969" style="stroke: #4A7C3F; stroke-width: 1.5;" width="143" x="793.5" y="51"/><text fill="#000000" font-family="sans-serif" font-size="14" lengthAdjust="spacingAndGlyphs" textLength="129" x="800.5" y="70.9951">auth.middleware.js</text><rect fill="#EAF4E3" height="30.2969" style="stroke: #4A7C3F; stroke-width: 1.5;" width="143" x="793.5" y="1332.2891"/><text fill="#000000" font-family="sans-serif" font-size="14" lengthAdjust="spacingAndGlyphs" textLength="129" x="800.5" y="1352.2842">auth.middleware.js</text><rect fill="#EAF4E3" height="30.2969" style="stroke: #4A7C3F; stroke-width: 1.5;" width="124" x="1052" y="51"/><text fill="#000000" font-family="sans-serif" font-size="14" lengthAdjust="spacingAndGlyphs" textLength="110" x="1059" y="70.9951">lote.controller.js</text><rect fill="#EAF4E3" height="30.2969" style="stroke: #4A7C3F; stroke-width: 1.5;" width="124" x="1052" y="1332.2891"/><text fill="#000000" font-family="sans-serif" font-size="14" lengthAdjust="spacingAndGlyphs" textLength="110" x="1059" y="1352.2842">lote.controller.js</text><rect fill="#EAF4E3" height="46.5938" style="stroke: #4A7C3F; stroke-width: 1.5;" width="146" x="1269" y="34.7031"/><text fill="#000000" font-family="sans-serif" font-size="14" lengthAdjust="spacingAndGlyphs" textLength="94" x="1295" y="54.6982">lote.service.js</text><text fill="#000000" font-family="sans-serif" font-size="14" lengthAdjust="spacingAndGlyphs" textLength="132" x="1276" y="70.9951">(logica de negocio)</text><rect fill="#EAF4E3" height="46.5938" style="stroke: #4A7C3F; stroke-width: 1.5;" width="146" x="1269" y="1332.2891"/><text fill="#000000" font-family="sans-serif" font-size="14" lengthAdjust="spacingAndGlyphs" textLength="94" x="1295" y="1352.2842">lote.service.js</text><text fill="#000000" font-family="sans-serif" font-size="14" lengthAdjust="spacingAndGlyphs" textLength="132" x="1276" y="1368.5811">(logica de negocio)</text><rect fill="#EAF4E3" height="46.5938" style="stroke: #4A7C3F; stroke-width: 1.5;" width="129" x="1570.5" y="34.7031"/><text fill="#000000" font-family="sans-serif" font-size="14" lengthAdjust="spacingAndGlyphs" textLength="88" x="1591" y="54.6982">lote.model.js</text><text fill="#000000" font-family="sans-serif" font-size="14" lengthAdjust="spacingAndGlyphs" textLength="115" x="1577.5" y="70.9951">(acceso a datos)</text><rect fill="#EAF4E3" height="46.5938" style="stroke: #4A7C3F; stroke-width: 1.5;" width="129" x="1570.5" y="1332.2891"/><text fill="#000000" font-family="sans-serif" font-size="14" lengthAdjust="spacingAndGlyphs" textLength="88" x="1591" y="1352.2842">lote.model.js</text><text fill="#000000" font-family="sans-serif" font-size="14" lengthAdjust="spacingAndGlyphs" textLength="115" x="1577.5" y="1368.5811">(acceso a datos)</text><text fill="#000000" font-family="sans-serif" font-size="14" lengthAdjust="spacingAndGlyphs" textLength="81" x="1866.5" y="62.6982">PostgreSQL</text><text fill="#000000" font-family="sans-serif" font-size="14" lengthAdjust="spacingAndGlyphs" textLength="63" x="1875.5" y="78.9951">tabla lote</text><path d="M1892,13.7031 C1892,3.7031 1910,3.7031 1910,3.7031 C1910,3.7031 1928,3.7031 1928,13.7031 L1928,39.7031 C1928,49.7031 1910,49.7031 1910,49.7031 C1910,49.7031 1892,49.7031 1892,39.7031 L1892,13.7031 " fill="#FEFECE" style="stroke: #000000; stroke-width: 1.5;"/><path d="M1892,13.7031 C1892,23.7031 1910,23.7031 1910,23.7031 C1910,23.7031 1928,23.7031 1928,13.7031 " fill="none" style="stroke: #000000; stroke-width: 1.5;"/><text fill="#000000" font-family="sans-serif" font-size="14" lengthAdjust="spacingAndGlyphs" textLength="81" x="1866.5" y="1345.2842">PostgreSQL</text><text fill="#000000" font-family="sans-serif" font-size="14" lengthAdjust="spacingAndGlyphs" textLength="63" x="1875.5" y="1361.5811">tabla lote</text><path d="M1892,1374.8828 C1892,1364.8828 1910,1364.8828 1910,1364.8828 C1910,1364.8828 1928,1364.8828 1928,1374.8828 L1928,1400.8828 C1928,1410.8828 1910,1410.8828 1910,1410.8828 C1910,1410.8828 1892,1410.8828 1892,1400.8828 L1892,1374.8828 " fill="#FEFECE" style="stroke: #000000; stroke-width: 1.5;"/><path d="M1892,1374.8828 C1892,1384.8828 1910,1384.8828 1910,1384.8828 C1910,1384.8828 1928,1384.8828 1928,1374.8828 " fill="none" style="stroke: #000000; stroke-width: 1.5;"/><rect fill="#FFFFFF" height="1106.1953" style="stroke: #4A7C3F; stroke-width: 1.0;" width="10" x="228" y="128.5625"/><rect fill="#FFFFFF" height="948.5313" style="stroke: #4A7C3F; stroke-width: 1.0;" width="10" x="454" y="199.8281"/><rect fill="#FFFFFF" height="868" style="stroke: #4A7C3F; stroke-width: 1.0;" width="10" x="681" y="259.2266"/><rect fill="#FFFFFF" height="249.5391" style="stroke: #4A7C3F; stroke-width: 1.0;" width="10" x="860" y="288.3594"/><rect fill="#FFFFFF" height="531.1953" style="stroke: #4A7C3F; stroke-width: 1.0;" width="10" x="1109" y="567.0313"/><rect fill="#FFFFFF" height="472.9297" style="stroke: #4A7C3F; stroke-width: 1.0;" width="10" x="1337" y="596.1641"/><rect fill="#FFFFFF" height="233.1953" style="stroke: #4A7C3F; stroke-width: 1.0;" width="10" x="1630" y="806.7656"/><rect fill="#FFFFFF" height="86.3984" style="stroke: #4A7C3F; stroke-width: 1.0;" width="10" x="1905" y="851.0313"/><rect fill="#FFFFFF" height="29.1328" style="stroke: #4A7C3F; stroke-width: 1.0;" width="10" x="1905" y="981.6953"/><polygon fill="#4A7C3F" points="216,124.5625,226,128.5625,216,132.5625,220,128.5625" style="stroke: #4A7C3F; stroke-width: 1.0;"/><line style="stroke: #4A7C3F; stroke-width: 1.0;" x1="45" x2="222" y1="128.5625" y2="128.5625"/><text fill="#000000" font-family="sans-serif" font-size="13" lengthAdjust="spacingAndGlyphs" textLength="145" x="52" y="108.3638">Diligencia el formulario</text><text fill="#000000" font-family="sans-serif" font-size="13" lengthAdjust="spacingAndGlyphs" textLength="109" x="52" y="123.4966">y pulsa "Publicar"</text><line style="stroke: #4A7C3F; stroke-width: 1.0;" x1="238" x2="280" y1="157.6953" y2="157.6953"/><line style="stroke: #4A7C3F; stroke-width: 1.0;" x1="280" x2="280" y1="157.6953" y2="170.6953"/><line style="stroke: #4A7C3F; stroke-width: 1.0;" x1="239" x2="280" y1="170.6953" y2="170.6953"/><polygon fill="#4A7C3F" points="249,166.6953,239,170.6953,249,174.6953,245,170.6953" style="stroke: #4A7C3F; stroke-width: 1.0;"/><text fill="#000000" font-family="sans-serif" font-size="13" lengthAdjust="spacingAndGlyphs" textLength="202" x="245" y="152.6294">Validacion basica del formulario</text><polygon fill="#4A7C3F" points="442,195.8281,452,199.8281,442,203.8281,446,199.8281" style="stroke: #4A7C3F; stroke-width: 1.0;"/><line style="stroke: #4A7C3F; stroke-width: 1.0;" x1="238" x2="448" y1="199.8281" y2="199.8281"/><text fill="#000000" font-family="sans-serif" font-size="13" lengthAdjust="spacingAndGlyphs" textLength="151" x="245" y="194.7622">crearLote(datos, token)</text><polygon fill="#4A7C3F" points="669,255.2266,679,259.2266,669,263.2266,673,259.2266" style="stroke: #4A7C3F; stroke-width: 1.0;"/><line style="stroke: #4A7C3F; stroke-width: 1.0;" x1="464" x2="675" y1="259.2266" y2="259.2266"/><text fill="#000000" font-family="sans-serif" font-size="13" lengthAdjust="spacingAndGlyphs" textLength="115" x="471" y="223.895">POST /api/v1/lotes</text><text fill="#000000" font-family="sans-serif" font-size="13" lengthAdjust="spacingAndGlyphs" textLength="198" x="471" y="239.0278">Authorization: Bearer &lt;token&gt;</text><text fill="#000000" font-family="sans-serif" font-size="13" lengthAdjust="spacingAndGlyphs" textLength="68" x="471" y="254.1606">Body JSON</text><polygon fill="#4A7C3F" points="848,284.3594,858,288.3594,848,292.3594,852,288.3594" style="stroke: #4A7C3F; stroke-width: 1.0;"/><line style="stroke: #4A7C3F; stroke-width: 1.0;" x1="691" x2="854" y1="288.3594" y2="288.3594"/><text fill="#000000" font-family="sans-serif" font-size="13" lengthAdjust="spacingAndGlyphs" textLength="150" x="698" y="283.2935">requiereAutenticacion()</text><line style="stroke: #4A7C3F; stroke-width: 1.0;" x1="870" x2="912" y1="317.4922" y2="317.4922"/><line style="stroke: #4A7C3F; stroke-width: 1.0;" x1="912" x2="912" y1="317.4922" y2="330.4922"/><line style="stroke: #4A7C3F; stroke-width: 1.0;" x1="871" x2="912" y1="330.4922" y2="330.4922"/><polygon fill="#4A7C3F" points="881,326.4922,871,330.4922,881,334.4922,877,330.4922" style="stroke: #4A7C3F; stroke-width: 1.0;"/><text fill="#000000" font-family="sans-serif" font-size="13" lengthAdjust="spacingAndGlyphs" textLength="165" x="877" y="312.4263">jwt.verify(token)  (RNF-02)</text><path d="M382,345.4922 L446,345.4922 L446,352.4922 L436,362.4922 L382,362.4922 L382,345.4922 " fill="#EEEEEE" style="stroke: #000000; stroke-width: 1.0;"/><rect fill="none" height="774.7344" style="stroke: #000000; stroke-width: 2.0;" width="1770" x="382" y="345.4922"/><text fill="#000000" font-family="sans-serif" font-size="13" font-weight="bold" lengthAdjust="spacingAndGlyphs" textLength="19" x="397" y="358.5591">alt</text><text fill="#000000" font-family="sans-serif" font-size="11" font-weight="bold" lengthAdjust="spacingAndGlyphs" textLength="172" x="461" y="357.7026">[Token invalido o ausente]</text><polygon fill="#4A7C3F" points="475,379.7578,465,383.7578,475,387.7578,471,383.7578" style="stroke: #4A7C3F; stroke-width: 1.0;"/><line style="stroke: #4A7C3F; stroke-width: 1.0; stroke-dasharray: 2.0,2.0;" x1="469" x2="859" y1="383.7578" y2="383.7578"/><text fill="#000000" font-family="sans-serif" font-size="13" lengthAdjust="spacingAndGlyphs" textLength="172" x="481" y="378.6919">401 {exito:false, mensaje}</text><line style="stroke: #000000; stroke-width: 1.0; stroke-dasharray: 2.0,2.0;" x1="382" x2="2152" y1="392.7578" y2="392.7578"/><text fill="#000000" font-family="sans-serif" font-size="11" font-weight="bold" lengthAdjust="spacingAndGlyphs" textLength="92" x="387" y="402.9683">[Token valido]</text><line style="stroke: #4A7C3F; stroke-width: 1.0;" x1="870" x2="912" y1="427.6953" y2="427.6953"/><line style="stroke: #4A7C3F; stroke-width: 1.0;" x1="912" x2="912" y1="427.6953" y2="440.6953"/><line style="stroke: #4A7C3F; stroke-width: 1.0;" x1="871" x2="912" y1="440.6953" y2="440.6953"/><polygon fill="#4A7C3F" points="881,436.6953,871,440.6953,881,444.6953,877,440.6953" style="stroke: #4A7C3F; stroke-width: 1.0;"/><text fill="#000000" font-family="sans-serif" font-size="13" lengthAdjust="spacingAndGlyphs" textLength="225" x="877" y="422.6294">requiereRol('PRODUCTOR')  (RN-02)</text><path d="M392,455.6953 L456,455.6953 L456,462.6953 L446,472.6953 L392,472.6953 L392,455.6953 " fill="#EEEEEE" style="stroke: #000000; stroke-width: 1.0;"/><rect fill="none" height="657.5313" style="stroke: #000000; stroke-width: 2.0;" width="1750" x="392" y="455.6953"/><text fill="#000000" font-family="sans-serif" font-size="13" font-weight="bold" lengthAdjust="spacingAndGlyphs" textLength="19" x="407" y="468.7622">alt</text><text fill="#000000" font-family="sans-serif" font-size="11" font-weight="bold" lengthAdjust="spacingAndGlyphs" textLength="186" x="471" y="467.9058">[Rol distinto de PRODUCTOR]</text><polygon fill="#4A7C3F" points="475,489.9609,465,493.9609,475,497.9609,471,493.9609" style="stroke: #4A7C3F; stroke-width: 1.0;"/><line style="stroke: #4A7C3F; stroke-width: 1.0; stroke-dasharray: 2.0,2.0;" x1="469" x2="859" y1="493.9609" y2="493.9609"/><text fill="#000000" font-family="sans-serif" font-size="13" lengthAdjust="spacingAndGlyphs" textLength="172" x="481" y="488.895">403 {exito:false, mensaje}</text><line style="stroke: #000000; stroke-width: 1.0; stroke-dasharray: 2.0,2.0;" x1="392" x2="2142" y1="502.9609" y2="502.9609"/><text fill="#000000" font-family="sans-serif" font-size="11" font-weight="bold" lengthAdjust="spacingAndGlyphs" textLength="87" x="397" y="513.1714">[Rol correcto]</text><polygon fill="#4A7C3F" points="702,533.8984,692,537.8984,702,541.8984,698,537.8984" style="stroke: #4A7C3F; stroke-width: 1.0;"/><line style="stroke: #4A7C3F; stroke-width: 1.0; stroke-dasharray: 2.0,2.0;" x1="696" x2="864" y1="537.8984" y2="537.8984"/><text fill="#000000" font-family="sans-serif" font-size="13" lengthAdjust="spacingAndGlyphs" textLength="38" x="708" y="532.8325">next()</text><polygon fill="#4A7C3F" points="1097,563.0313,1107,567.0313,1097,571.0313,1101,567.0313" style="stroke: #4A7C3F; stroke-width: 1.0;"/><line style="stroke: #4A7C3F; stroke-width: 1.0;" x1="691" x2="1103" y1="567.0313" y2="567.0313"/><text fill="#000000" font-family="sans-serif" font-size="13" lengthAdjust="spacingAndGlyphs" textLength="128" x="698" y="561.9653">crear(req, res, next)</text><polygon fill="#4A7C3F" points="1325,592.1641,1335,596.1641,1325,600.1641,1329,596.1641" style="stroke: #4A7C3F; stroke-width: 1.0;"/><line style="stroke: #4A7C3F; stroke-width: 1.0;" x1="1119" x2="1331" y1="596.1641" y2="596.1641"/><text fill="#000000" font-family="sans-serif" font-size="13" lengthAdjust="spacingAndGlyphs" textLength="162" x="1126" y="591.0981">crearLote(usuario, datos)</text><line style="stroke: #4A7C3F; stroke-width: 1.0;" x1="1347" x2="1389" y1="625.2969" y2="625.2969"/><line style="stroke: #4A7C3F; stroke-width: 1.0;" x1="1389" x2="1389" y1="625.2969" y2="638.2969"/><line style="stroke: #4A7C3F; stroke-width: 1.0;" x1="1348" x2="1389" y1="638.2969" y2="638.2969"/><polygon fill="#4A7C3F" points="1358,634.2969,1348,638.2969,1358,642.2969,1354,638.2969" style="stroke: #4A7C3F; stroke-width: 1.0;"/><text fill="#000000" font-family="sans-serif" font-size="13" lengthAdjust="spacingAndGlyphs" textLength="194" x="1354" y="620.231">verificarEsProductor()  (RN-02)</text><line style="stroke: #4A7C3F; stroke-width: 1.0;" x1="1347" x2="1389" y1="667.4297" y2="667.4297"/><line style="stroke: #4A7C3F; stroke-width: 1.0;" x1="1389" x2="1389" y1="667.4297" y2="680.4297"/><line style="stroke: #4A7C3F; stroke-width: 1.0;" x1="1348" x2="1389" y1="680.4297" y2="680.4297"/><polygon fill="#4A7C3F" points="1358,676.4297,1348,680.4297,1358,684.4297,1354,680.4297" style="stroke: #4A7C3F; stroke-width: 1.0;"/><text fill="#000000" font-family="sans-serif" font-size="13" lengthAdjust="spacingAndGlyphs" textLength="269" x="1354" y="662.3638">validarDatosLote()  (RN-04, RN-05, RN-06)</text><path d="M402,695.4297 L466,695.4297 L466,702.4297 L456,712.4297 L402,712.4297 L402,695.4297 " fill="#EEEEEE" style="stroke: #000000; stroke-width: 1.0;"/><rect fill="none" height="410.7969" style="stroke: #000000; stroke-width: 2.0;" width="1730" x="402" y="695.4297"/><text fill="#000000" font-family="sans-serif" font-size="13" font-weight="bold" lengthAdjust="spacingAndGlyphs" textLength="19" x="417" y="708.4966">alt</text><text fill="#000000" font-family="sans-serif" font-size="11" font-weight="bold" lengthAdjust="spacingAndGlyphs" textLength="109" x="481" y="707.6401">[Datos invalidos]</text><polygon fill="#4A7C3F" points="1130,729.6953,1120,733.6953,1130,737.6953,1126,733.6953" style="stroke: #4A7C3F; stroke-width: 1.0;"/><line style="stroke: #4A7C3F; stroke-width: 1.0; stroke-dasharray: 2.0,2.0;" x1="1124" x2="1336" y1="733.6953" y2="733.6953"/><text fill="#000000" font-family="sans-serif" font-size="13" lengthAdjust="spacingAndGlyphs" textLength="194" x="1136" y="728.6294">ErrorApp(400, lista de errores)</text><polygon fill="#4A7C3F" points="475,758.8281,465,762.8281,475,766.8281,471,762.8281" style="stroke: #4A7C3F; stroke-width: 1.0;"/><line style="stroke: #4A7C3F; stroke-width: 1.0; stroke-dasharray: 2.0,2.0;" x1="469" x2="1108" y1="762.8281" y2="762.8281"/><text fill="#000000" font-family="sans-serif" font-size="13" lengthAdjust="spacingAndGlyphs" textLength="193" x="481" y="757.7622">400 {exito:false, detalles:[...]}</text><line style="stroke: #000000; stroke-width: 1.0; stroke-dasharray: 2.0,2.0;" x1="402" x2="2132" y1="771.8281" y2="771.8281"/><text fill="#000000" font-family="sans-serif" font-size="11" font-weight="bold" lengthAdjust="spacingAndGlyphs" textLength="97" x="407" y="782.0386">[Datos validos]</text><polygon fill="#4A7C3F" points="1618,802.7656,1628,806.7656,1618,810.7656,1622,806.7656" style="stroke: #4A7C3F; stroke-width: 1.0;"/><line style="stroke: #4A7C3F; stroke-width: 1.0;" x1="1347" x2="1624" y1="806.7656" y2="806.7656"/><text fill="#000000" font-family="sans-serif" font-size="13" lengthAdjust="spacingAndGlyphs" textLength="211" x="1354" y="801.6997">crear({usuarioId, variedadId, ...})</text><polygon fill="#4A7C3F" points="1893,847.0313,1903,851.0313,1893,855.0313,1897,851.0313" style="stroke: #4A7C3F; stroke-width: 1.0;"/><line style="stroke: #4A7C3F; stroke-width: 1.0;" x1="1640" x2="1899" y1="851.0313" y2="851.0313"/><text fill="#000000" font-family="sans-serif" font-size="13" lengthAdjust="spacingAndGlyphs" textLength="133" x="1647" y="830.8325">INSERT INTO lote (...)</text><text fill="#000000" font-family="sans-serif" font-size="13" lengthAdjust="spacingAndGlyphs" textLength="230" x="1647" y="845.9653">VALUES ($1..$8) RETURNING lote_id</text><line style="stroke: #4A7C3F; stroke-width: 1.0;" x1="1915" x2="1957" y1="895.2969" y2="895.2969"/><line style="stroke: #4A7C3F; stroke-width: 1.0;" x1="1957" x2="1957" y1="895.2969" y2="908.2969"/><line style="stroke: #4A7C3F; stroke-width: 1.0;" x1="1916" x2="1957" y1="908.2969" y2="908.2969"/><polygon fill="#4A7C3F" points="1926,904.2969,1916,908.2969,1926,912.2969,1922,908.2969" style="stroke: #4A7C3F; stroke-width: 1.0;"/><text fill="#000000" font-family="sans-serif" font-size="13" lengthAdjust="spacingAndGlyphs" textLength="194" x="1922" y="875.0981">Verifica CHECK ck_lote_precio,</text><text fill="#000000" font-family="sans-serif" font-size="13" lengthAdjust="spacingAndGlyphs" textLength="198" x="1922" y="890.231">ck_lote_fechas, ck_lote_estado</text><polygon fill="#4A7C3F" points="1651,933.4297,1641,937.4297,1651,941.4297,1647,937.4297" style="stroke: #4A7C3F; stroke-width: 1.0;"/><line style="stroke: #4A7C3F; stroke-width: 1.0; stroke-dasharray: 2.0,2.0;" x1="1645" x2="1909" y1="937.4297" y2="937.4297"/><text fill="#000000" font-family="sans-serif" font-size="13" lengthAdjust="spacingAndGlyphs" textLength="42" x="1657" y="932.3638">lote_id</text><polygon fill="#4A7C3F" points="1893,977.6953,1903,981.6953,1893,985.6953,1897,981.6953" style="stroke: #4A7C3F; stroke-width: 1.0;"/><line style="stroke: #4A7C3F; stroke-width: 1.0;" x1="1640" x2="1899" y1="981.6953" y2="981.6953"/><text fill="#000000" font-family="sans-serif" font-size="13" lengthAdjust="spacingAndGlyphs" textLength="207" x="1647" y="961.4966">SELECT ... JOIN variedad, calibre,</text><text fill="#000000" font-family="sans-serif" font-size="13" lengthAdjust="spacingAndGlyphs" textLength="246" x="1647" y="976.6294">usuario, municipio WHERE lote_id = $1</text><polygon fill="#4A7C3F" points="1651,1006.8281,1641,1010.8281,1651,1014.8281,1647,1010.8281" style="stroke: #4A7C3F; stroke-width: 1.0;"/><line style="stroke: #4A7C3F; stroke-width: 1.0; stroke-dasharray: 2.0,2.0;" x1="1645" x2="1909" y1="1010.8281" y2="1010.8281"/><text fill="#000000" font-family="sans-serif" font-size="13" lengthAdjust="spacingAndGlyphs" textLength="136" x="1657" y="1005.7622">Fila completa del lote</text><polygon fill="#4A7C3F" points="1358,1035.9609,1348,1039.9609,1358,1043.9609,1354,1039.9609" style="stroke: #4A7C3F; stroke-width: 1.0;"/><line style="stroke: #4A7C3F; stroke-width: 1.0; stroke-dasharray: 2.0,2.0;" x1="1352" x2="1634" y1="1039.9609" y2="1039.9609"/><text fill="#000000" font-family="sans-serif" font-size="13" lengthAdjust="spacingAndGlyphs" textLength="68" x="1364" y="1034.895">objeto lote</text><polygon fill="#4A7C3F" points="1130,1065.0938,1120,1069.0938,1130,1073.0938,1126,1069.0938" style="stroke: #4A7C3F; stroke-width: 1.0;"/><line style="stroke: #4A7C3F; stroke-width: 1.0; stroke-dasharray: 2.0,2.0;" x1="1124" x2="1341" y1="1069.0938" y2="1069.0938"/><text fill="#000000" font-family="sans-serif" font-size="13" lengthAdjust="spacingAndGlyphs" textLength="68" x="1136" y="1064.0278">objeto lote</text><polygon fill="#4A7C3F" points="475,1094.2266,465,1098.2266,475,1102.2266,471,1098.2266" style="stroke: #4A7C3F; stroke-width: 1.0;"/><line style="stroke: #4A7C3F; stroke-width: 1.0; stroke-dasharray: 2.0,2.0;" x1="469" x2="1113" y1="1098.2266" y2="1098.2266"/><text fill="#000000" font-family="sans-serif" font-size="13" lengthAdjust="spacingAndGlyphs" textLength="193" x="481" y="1093.1606">201 {exito:true, datos:{lote}}</text><polygon fill="#4A7C3F" points="249,1144.3594,239,1148.3594,249,1152.3594,245,1148.3594" style="stroke: #4A7C3F; stroke-width: 1.0;"/><line style="stroke: #4A7C3F; stroke-width: 1.0; stroke-dasharray: 2.0,2.0;" x1="243" x2="458" y1="1148.3594" y2="1148.3594"/><text fill="#000000" font-family="sans-serif" font-size="13" lengthAdjust="spacingAndGlyphs" textLength="76" x="255" y="1143.2935">Lote creado</text><line style="stroke: #4A7C3F; stroke-width: 1.0;" x1="238" x2="280" y1="1177.4922" y2="1177.4922"/><line style="stroke: #4A7C3F; stroke-width: 1.0;" x1="280" x2="280" y1="1177.4922" y2="1190.4922"/><line style="stroke: #4A7C3F; stroke-width: 1.0;" x1="239" x2="280" y1="1190.4922" y2="1190.4922"/><polygon fill="#4A7C3F" points="249,1186.4922,239,1190.4922,249,1194.4922,245,1190.4922" style="stroke: #4A7C3F; stroke-width: 1.0;"/><text fill="#000000" font-family="sans-serif" font-size="13" lengthAdjust="spacingAndGlyphs" textLength="170" x="245" y="1172.4263">Refresca la lista "Mis lotes"</text><polygon fill="#4A7C3F" points="56,1230.7578,46,1234.7578,56,1238.7578,52,1234.7578" style="stroke: #4A7C3F; stroke-width: 1.0;"/><line style="stroke: #4A7C3F; stroke-width: 1.0; stroke-dasharray: 2.0,2.0;" x1="50" x2="232" y1="1234.7578" y2="1234.7578"/><text fill="#000000" font-family="sans-serif" font-size="13" lengthAdjust="spacingAndGlyphs" textLength="159" x="62" y="1214.5591">Mensaje de confirmacion</text><text fill="#000000" font-family="sans-serif" font-size="13" lengthAdjust="spacingAndGlyphs" textLength="153" x="62" y="1229.6919">y lote visible en pantalla</text><path d="M1735,1247.7578 L1735,1317.7578 L2085,1317.7578 L2085,1257.7578 L2075,1247.7578 L1735,1247.7578 " fill="#FBFB77" style="stroke: #A80036; stroke-width: 1.0;"/><path d="M2075,1247.7578 L2075,1257.7578 L2085,1257.7578 L2075,1247.7578 " fill="#FBFB77" style="stroke: #A80036; stroke-width: 1.0;"/><text fill="#000000" font-family="sans-serif" font-size="13" lengthAdjust="spacingAndGlyphs" textLength="304" x="1741" y="1264.8247">La transaccion del INSERT es atomica (RNF-05).</text><text fill="#000000" font-family="sans-serif" font-size="13" lengthAdjust="spacingAndGlyphs" textLength="290" x="1741" y="1279.9575">Si alguna restriccion CHECK falla, PostgreSQL</text><text fill="#000000" font-family="sans-serif" font-size="13" lengthAdjust="spacingAndGlyphs" textLength="290" x="1741" y="1295.0903">revierte y el middleware de errores traduce el</text><text fill="#000000" font-family="sans-serif" font-size="13" lengthAdjust="spacingAndGlyphs" textLength="329" x="1741" y="1310.2231">codigo 23514 a un mensaje de negocio (HTTP 400).</text><!--MD5=[b7a7f58ce9a643618ae5f2189639a71c]
@startuml secuencia_publicar_lote
skinparam backgroundColor White
skinparam shadowing false
skinparam sequence {
  ArrowColor #4A7C3F
  LifeLineBorderColor #4A7C3F
  ParticipantBorderColor #4A7C3F
  ParticipantBackgroundColor #EAF4E3
  ActorBorderColor #4A7C3F
}

actor Productor as P
participant "LoteFormScreen\n(Flutter)" as UI
participant "LoteService\n(Flutter)" as FSVC
participant "lote.routes.js\n(Express)" as RT
participant "auth.middleware.js" as MW
participant "lote.controller.js" as CTRL
participant "lote.service.js\n(logica de negocio)" as SVC
participant "lote.model.js\n(acceso a datos)" as MOD
database "PostgreSQL\ntabla lote" as BD

P -> UI : Diligencia el formulario\ny pulsa "Publicar"
activate UI
UI -> UI : Validacion basica del formulario
UI -> FSVC : crearLote(datos, token)
activate FSVC
FSVC -> RT : POST /api/v1/lotes\nAuthorization: Bearer <token>\nBody JSON
activate RT

RT -> MW : requiereAutenticacion()
activate MW
MW -> MW : jwt.verify(token)  (RNF-02)
alt Token invalido o ausente
  MW - -> FSVC : 401 {exito:false, mensaje}
else Token valido
  MW -> MW : requiereRol('PRODUCTOR')  (RN-02)
  alt Rol distinto de PRODUCTOR
    MW - -> FSVC : 403 {exito:false, mensaje}
  else Rol correcto
    MW - -> RT : next()
    deactivate MW
    RT -> CTRL : crear(req, res, next)
    activate CTRL
    CTRL -> SVC : crearLote(usuario, datos)
    activate SVC
    SVC -> SVC : verificarEsProductor()  (RN-02)
    SVC -> SVC : validarDatosLote()  (RN-04, RN-05, RN-06)
    alt Datos invalidos
      SVC - -> CTRL : ErrorApp(400, lista de errores)
      CTRL - -> FSVC : 400 {exito:false, detalles:[...]}
    else Datos validos
      SVC -> MOD : crear({usuarioId, variedadId, ...})
      activate MOD
      MOD -> BD : INSERT INTO lote (...) \nVALUES ($1..$8) RETURNING lote_id
      activate BD
      BD -> BD : Verifica CHECK ck_lote_precio,\nck_lote_fechas, ck_lote_estado
      BD - -> MOD : lote_id
      deactivate BD
      MOD -> BD : SELECT ... JOIN variedad, calibre,\nusuario, municipio WHERE lote_id = $1
      activate BD
      BD - -> MOD : Fila completa del lote
      deactivate BD
      MOD - -> SVC : objeto lote
      deactivate MOD
      SVC - -> CTRL : objeto lote
      deactivate SVC
      CTRL - -> FSVC : 201 {exito:true, datos:{lote}}
      deactivate CTRL
    end
  end
end
deactivate RT

FSVC - -> UI : Lote creado
deactivate FSVC
UI -> UI : Refresca la lista "Mis lotes"
UI - -> P : Mensaje de confirmacion\ny lote visible en pantalla
deactivate UI

note over BD
  La transaccion del INSERT es atomica (RNF-05).
  Si alguna restriccion CHECK falla, PostgreSQL
  revierte y el middleware de errores traduce el
  codigo 23514 a un mensaje de negocio (HTTP 400).
end note

@enduml

PlantUML version 1.2020.02(Sun Mar 01 10:22:07 UTC 2020)
(GPL source distribution)
Java Runtime: OpenJDK Runtime Environment
JVM: OpenJDK 64-Bit Server VM
Java Version: 21.0.12+8-1-24.04-Ubuntu
Operating System: Linux
Default Encoding: UTF-8
Language: en
Country: US
--></g></svg>